<svg width="26" height="20" viewBox="0 0 26 20" fill="none" xmlns="http://www.w3.org/2000/svg">
<g id="United Kingdom (GB)" clip-path="url(#clip0_733_131)">
<path id="Vector" d="M0.666626 0.5H26V19.5H0.666626V0.5Z" fill="#012169"/>
<path id="Vector_2" d="M3.63538 0.5L13.2937 7.66458L22.9125 0.5H26V2.95417L16.5 10.0396L26 17.0854V19.5H22.8333L13.3333 12.4146L3.87288 19.5H0.666626V17.125L10.127 10.0792L0.666626 3.03333V0.5H3.63538Z" fill="white"/>
<path id="Vector_3" d="M17.45 11.6229L26 17.9167V19.5L15.2729 11.6229H17.45ZM10.1666 12.4146L10.4041 13.8L2.80413 19.5H0.666626L10.1666 12.4146ZM26 0.5V0.61875L16.1437 8.06042L16.2229 6.31875L24.0208 0.5H26ZM0.666626 0.5L10.127 7.46667H7.75204L0.666626 2.1625V0.5Z" fill="#C8102E"/>
<path id="Vector_4" d="M10.2062 0.5V19.5H16.5395V0.5H10.2062ZM0.666626 6.83333V13.1667H26V6.83333H0.666626Z" fill="white"/>
<path id="Vector_5" d="M0.666626 8.13958V11.9396H26V8.13958H0.666626ZM11.4729 0.5V19.5H15.2729V0.5H11.4729Z" fill="#C8102E"/>
</g>
<defs>
<clipPath id="clip0_733_131">
<rect width="25.3333" height="19" fill="white" transform="translate(0.666626 0.5)"/>
</clipPath>
</defs>
</svg>
