<svg width="234" height="50" viewBox="0 0 234 50" fill="none" xmlns="http://www.w3.org/2000/svg">
<path d="M37.3649 22.285C36.7333 22.9205 36.2496 23.6875 35.9483 24.5312C35.6469 25.375 35.5354 26.2748 35.6216 27.1667L35.5916 27.1367C35.6803 28.1865 35.5386 29.2428 35.1768 30.2323C34.8149 31.2217 34.2416 32.1202 33.4968 32.8652C32.7518 33.61 31.8533 34.1835 30.8638 34.5452C29.8744 34.907 28.8179 35.0487 27.7683 34.96L27.7983 34.99C26.5426 34.8732 25.2814 35.1463 24.1866 35.7725C23.0919 36.3987 22.2169 37.3472 21.6811 38.4888C21.1453 39.6305 20.9744 40.9095 21.1921 42.1518C21.4099 43.394 22.0054 44.5388 22.8976 45.4302C23.7898 46.3215 24.9351 46.916 26.1774 47.1325C27.4199 47.3492 28.6988 47.1772 29.8399 46.6403C30.9811 46.1033 31.9288 45.2277 32.5539 44.1323C33.1791 43.037 33.4513 41.7757 33.3333 40.52L33.3649 40.55C33.2763 39.5003 33.4178 38.4438 33.7796 37.4543C34.1414 36.465 34.7149 35.5665 35.4598 34.8215C36.2048 34.0767 37.1033 33.5032 38.0926 33.1415C39.0821 32.7797 40.1384 32.638 41.1883 32.7267L41.1566 32.6967C42.1823 32.7888 43.2148 32.6207 44.1583 32.2077C45.1016 31.7947 45.9256 31.1502 46.5536 30.334C47.1816 29.5178 47.5936 28.5562 47.7509 27.5385C47.9084 26.5207 47.8064 25.4797 47.4544 24.5117C47.1024 23.5438 46.5118 22.6805 45.7373 22.0017C44.9628 21.3228 44.0294 20.8505 43.0238 20.6285C42.0181 20.4065 40.9726 20.4418 39.9843 20.7313C38.9959 21.021 38.0968 21.5553 37.3699 22.285H37.3649Z" fill="#50DE4D"/>
<path d="M25.0701 31.06L25.0384 31.03C25.9306 31.1198 26.8316 31.0103 27.6764 30.7093C28.5211 30.4083 29.2884 29.9235 29.9228 29.2897C30.5569 28.6558 31.0426 27.8888 31.3441 27.0443C31.6458 26.1998 31.7559 25.299 31.6668 24.4067L31.6984 24.4367C31.6098 23.3868 31.7514 22.3305 32.1131 21.341C32.4749 20.3517 33.0484 19.4532 33.7933 18.7082C34.5383 17.9633 35.4368 17.3898 36.4261 17.0282C37.4156 16.6663 38.4719 16.5247 39.5218 16.6133L39.4901 16.5833C40.7459 16.7013 42.0074 16.4289 43.1028 15.8035C44.1983 15.1781 45.0739 14.23 45.6106 13.0885C46.1473 11.9471 46.3188 10.6679 46.1018 9.42534C45.8848 8.18282 45.2898 7.03752 44.3978 6.14562C43.5059 5.25374 42.3606 4.65867 41.1181 4.44164C39.8756 4.22459 38.5964 4.3961 37.4549 4.9328C36.3134 5.46949 35.3654 6.34524 34.7399 7.44059C34.1144 8.53592 33.8421 9.79754 33.9601 11.0533L33.9301 11.0217C34.0189 12.0715 33.8776 13.1281 33.5159 14.1176C33.1543 15.1071 32.5808 16.0058 31.8359 16.7508C31.0909 17.4957 30.1923 18.0692 29.2028 18.4308C28.2131 18.7925 27.1566 18.9338 26.1068 18.845L26.1368 18.8767C25.2446 18.7868 24.3434 18.8963 23.4988 19.1973C22.6541 19.4982 21.8868 19.9832 21.2524 20.617C20.6181 21.2508 20.1326 22.0178 19.8309 22.8623C19.5294 23.7068 19.4193 24.6077 19.5084 25.5L19.4784 25.47C19.5668 26.5197 19.4249 27.576 19.0631 28.5653C18.7011 29.5545 18.1278 30.453 17.3829 31.1978C16.638 31.9427 15.7396 32.516 14.7504 32.878C13.7611 33.2398 12.7048 33.3817 11.6551 33.2933L11.6851 33.3233C10.4293 33.2053 9.16768 33.4777 8.07233 34.1032C6.97699 34.7287 6.10124 35.6767 5.56456 36.8182C5.02786 37.9597 4.85633 39.2388 5.07338 40.4813C5.29043 41.7238 5.88549 42.8692 6.77738 43.761C7.66928 44.653 8.81458 45.248 10.0571 45.465C11.2996 45.682 12.5788 45.5105 13.7203 44.9738C14.8617 44.4372 15.8098 43.5615 16.4353 42.4662C17.0608 41.3707 17.3331 40.1092 17.2151 38.8533L17.2468 38.8833C17.1581 37.8335 17.2998 36.7772 17.6616 35.7877C18.0233 34.7983 18.5968 33.8998 19.3416 33.1548C20.0866 32.41 20.9851 31.8365 21.9744 31.4748C22.9639 31.113 24.0203 30.9713 25.0701 31.06Z" fill="#50DE4D"/>
<path d="M13.9 27.715C14.5317 27.0797 15.0154 26.3127 15.3164 25.4688C15.6175 24.625 15.7286 23.725 15.6417 22.8333L15.6733 22.8633C15.5847 21.8133 15.7263 20.7565 16.0883 19.7668C16.4503 18.7772 17.024 17.8785 17.7694 17.1335C18.5147 16.3885 19.4135 15.8152 20.4034 15.4536C21.3932 15.092 22.45 14.9509 23.5 15.04L23.4684 15.01C24.7237 15.1276 25.9849 14.8551 27.0797 14.2297C28.1745 13.6043 29.0497 12.6565 29.5862 11.5154C30.1225 10.3743 30.2939 9.09553 30.0769 7.85348C29.8599 6.61143 29.2649 5.46656 28.3734 4.575C27.4819 3.68343 26.3369 3.08856 25.0949 2.87153C23.8529 2.65448 22.574 2.82585 21.433 3.36221C20.2919 3.89858 19.344 4.77386 18.7187 5.8687C18.0932 6.96353 17.8207 8.22463 17.9384 9.48L17.9084 9.45C17.997 10.4997 17.8554 11.5562 17.4935 12.5456C17.1317 13.535 16.5584 14.4335 15.8135 15.1784C15.0685 15.9234 14.17 16.4968 13.1806 16.8585C12.1912 17.2203 11.1348 17.362 10.085 17.2733L10.115 17.3033C9.08931 17.2113 8.05696 17.3798 7.11366 17.793C6.17036 18.2062 5.34661 18.8508 4.71876 19.6672C4.09091 20.4833 3.67928 21.445 3.52198 22.4627C3.36469 23.4805 3.46684 24.5215 3.81896 25.4892C4.17108 26.457 4.76179 27.3202 5.53634 27.9988C6.31089 28.6777 7.24423 29.1498 8.24986 29.3718C9.25548 29.5937 10.3009 29.5582 11.2891 29.2687C12.2774 28.979 13.1766 28.4447 13.9033 27.715H13.9Z" fill="#50DE4D"/>
<path d="M65.5283 11.0917H70.4783V35.18H65.5283V11.0917Z" fill="#50DE4D"/>
<path d="M73.2817 26.9317C73.2749 25.2007 73.7819 23.5063 74.7386 22.0637C75.6952 20.621 77.0586 19.4947 78.6559 18.8275C80.2532 18.1602 82.0126 17.982 83.7112 18.3155C85.4099 18.649 86.9714 19.479 88.1979 20.7007C89.4244 21.9222 90.2607 23.4803 90.6011 25.1777C90.9414 26.875 90.7702 28.6352 90.1094 30.2352C89.4486 31.835 88.3277 33.203 86.8889 34.1653C85.4499 35.1278 83.7579 35.6417 82.0267 35.6417C80.8777 35.6548 79.7376 35.4387 78.6729 35.006C77.6082 34.5733 76.6406 33.9328 75.8264 33.122C75.0121 32.311 74.3677 31.3458 73.9309 30.283C73.4939 29.2202 73.2732 28.0808 73.2817 26.9317ZM85.8217 26.9317C85.8011 26.1855 85.5609 25.462 85.1314 24.8515C84.7017 24.2412 84.1017 23.7708 83.4064 23.4997C82.7109 23.2283 81.9511 23.168 81.2216 23.3263C80.4921 23.4847 79.8254 23.8543 79.3049 24.3895C78.7846 24.9245 78.4332 25.6012 78.2954 26.3348C78.1574 27.0683 78.2386 27.8263 78.5291 28.514C78.8196 29.2017 79.3062 29.7883 79.9282 30.2008C80.5504 30.6133 81.2804 30.8333 82.0267 30.8333C82.5379 30.847 83.0464 30.7545 83.5202 30.5618C83.9939 30.3692 84.4226 30.0805 84.7791 29.714C85.1356 29.3473 85.4124 28.9108 85.5917 28.432C85.7712 27.9532 85.8496 27.4423 85.8217 26.9317Z" fill="#50DE4D"/>
<path d="M110.5 18.6817V34.3483C110.5 39.8917 106.177 42.235 101.788 42.235C100.243 42.3507 98.6962 42.0385 97.3167 41.333C95.9373 40.6273 94.7788 39.5555 93.9683 38.235L98.1917 35.7933C98.5323 36.4817 99.0752 37.0495 99.7473 37.421C100.42 37.7923 101.189 37.9497 101.953 37.8717C102.442 37.9393 102.939 37.8963 103.409 37.7458C103.878 37.5953 104.308 37.3412 104.666 37.0023C105.024 36.6633 105.301 36.2483 105.477 35.7877C105.653 35.3272 105.723 34.833 105.682 34.3417V32.8333C105.102 33.5425 104.364 34.106 103.528 34.4785C102.691 34.851 101.778 35.0222 100.863 34.9783C98.6863 34.9097 96.6215 33.9967 95.1058 32.4323C93.5902 30.8682 92.7427 28.7755 92.7427 26.5975C92.7427 24.4195 93.5902 22.3268 95.1058 20.7627C96.6215 19.1983 98.6863 18.2853 100.863 18.2167C101.778 18.1728 102.691 18.344 103.528 18.7165C104.364 19.089 105.102 19.6525 105.682 20.3617V18.6783L110.5 18.6817ZM105.683 26.6C105.717 25.8023 105.51 25.0128 105.091 24.3333C104.672 23.6537 104.059 23.1152 103.331 22.787C102.603 22.4587 101.794 22.3558 101.007 22.4915C100.22 22.6272 99.4922 22.9952 98.9162 23.5483C98.3403 24.1013 97.9432 24.814 97.7757 25.5947C97.6083 26.3753 97.6783 27.1883 97.977 27.9288C98.2755 28.6693 98.7888 29.3037 99.4508 29.75C100.113 30.1963 100.893 30.4343 101.692 30.4333C102.212 30.4697 102.734 30.3967 103.224 30.219C103.714 30.0413 104.162 29.7628 104.538 29.4018C104.914 29.0407 105.21 28.6048 105.407 28.1222C105.605 27.6397 105.699 27.1212 105.683 26.6Z" fill="#50DE4D"/>
<path d="M113.303 26.9317C113.296 25.2007 113.803 23.5063 114.76 22.0637C115.717 20.621 117.08 19.4947 118.677 18.8275C120.275 18.1602 122.034 17.982 123.733 18.3155C125.431 18.649 126.993 19.479 128.219 20.7007C129.446 21.9222 130.282 23.4803 130.623 25.1777C130.963 26.875 130.792 28.6352 130.131 30.2352C129.47 31.835 128.349 33.203 126.91 34.1653C125.471 35.1278 123.779 35.6417 122.048 35.6417C120.899 35.6548 119.759 35.4387 118.694 35.006C117.63 34.5733 116.662 33.9328 115.848 33.122C115.034 32.311 114.389 31.3458 113.952 30.283C113.515 29.2202 113.295 28.0808 113.303 26.9317ZM125.843 26.9317C125.823 26.1855 125.582 25.462 125.153 24.8515C124.723 24.2412 124.123 23.7708 123.428 23.4997C122.732 23.2283 121.972 23.168 121.243 23.3263C120.514 23.4847 119.847 23.8543 119.326 24.3895C118.806 24.9245 118.455 25.6012 118.317 26.3348C118.179 27.0683 118.26 27.8263 118.551 28.514C118.841 29.2017 119.328 29.7883 119.95 30.2008C120.572 30.6133 121.302 30.8333 122.048 30.8333C122.559 30.847 123.068 30.7545 123.542 30.5618C124.015 30.3692 124.444 30.0805 124.801 29.714C125.157 29.3473 125.434 28.9108 125.613 28.432C125.793 27.9532 125.871 27.4423 125.843 26.9317Z" fill="#50DE4D"/>
<path d="M133.102 14.26C133.102 13.6726 133.276 13.0984 133.602 12.61C133.928 12.1215 134.392 11.7409 134.935 11.5161C135.478 11.2913 136.075 11.2325 136.651 11.3471C137.227 11.4617 137.756 11.7445 138.172 12.1599C138.587 12.5752 138.87 13.1044 138.985 13.6806C139.099 14.2567 139.04 14.8539 138.816 15.3966C138.591 15.9393 138.21 16.4031 137.722 16.7295C137.233 17.0558 136.659 17.23 136.072 17.23C135.286 17.2222 134.535 16.9068 133.98 16.3515C133.425 15.7962 133.109 15.0453 133.102 14.26ZM133.602 18.6817H138.553V35.1817H133.595L133.602 18.6817Z" fill="#50DE4D"/>
<path d="M159.927 26.9317C159.984 28.0222 159.825 29.1132 159.459 30.142C159.093 31.1708 158.528 32.1172 157.795 32.9267C157.062 33.736 156.176 34.3927 155.188 34.8587C154.201 35.3245 153.131 35.5907 152.04 35.6417C151.123 35.6917 150.206 35.537 149.356 35.1888C148.506 34.8405 147.744 34.3075 147.125 33.6283V41.78H142.175V18.6817H147.125V20.2317C147.744 19.553 148.506 19.0203 149.356 18.6725C150.206 18.3245 151.123 18.17 152.04 18.22C153.131 18.2708 154.201 18.5368 155.189 19.0028C156.177 19.4688 157.063 20.1255 157.796 20.9352C158.529 21.7448 159.094 22.6915 159.46 23.7207C159.826 24.7497 159.984 25.841 159.927 26.9317ZM154.977 26.9317C154.957 26.1595 154.711 25.4102 154.268 24.7773C153.824 24.1447 153.205 23.6567 152.486 23.3747C151.766 23.0925 150.98 23.0287 150.225 23.1913C149.47 23.3538 148.779 23.7355 148.24 24.2885C147.701 24.8417 147.337 25.5413 147.193 26.3005C147.05 27.0595 147.133 27.8438 147.433 28.5557C147.733 29.2675 148.237 29.8748 148.88 30.302C149.524 30.729 150.279 30.9568 151.052 30.9567C151.582 30.9803 152.111 30.8915 152.605 30.6962C153.099 30.501 153.545 30.2035 153.916 29.8235C154.287 29.4433 154.573 28.9893 154.755 28.491C154.938 27.9927 155.014 27.4612 154.977 26.9317Z" fill="#50DE4D"/>
<path d="M175.202 30.23C175.202 34.025 171.903 35.6417 168.34 35.6417C166.9 35.772 165.455 35.4677 164.19 34.7675C162.925 34.0675 161.899 33.0042 161.245 31.715L165.533 29.2733C165.707 29.8692 166.08 30.3877 166.589 30.7418C167.098 31.0962 167.715 31.265 168.333 31.22C169.52 31.22 170.115 30.8567 170.115 30.1983C170.115 28.3817 161.997 29.34 161.997 23.6317C161.997 20.0333 165.033 18.22 168.465 18.22C169.755 18.1792 171.032 18.4852 172.163 19.106C173.295 19.727 174.24 20.64 174.898 21.75L170.675 24.0267C170.49 23.5945 170.182 23.2263 169.788 22.9682C169.395 22.71 168.935 22.5733 168.465 22.575C167.607 22.575 167.078 22.9083 167.078 23.4983C167.085 25.38 175.202 24.125 175.202 30.23Z" fill="#50DE4D"/>
<path d="M193.283 18.6817V35.1817H188.333V33.63C187.762 34.3147 187.037 34.8542 186.217 35.2042C185.397 35.5542 184.507 35.7047 183.617 35.6433C180.283 35.6433 177.45 33.2683 177.45 28.81V18.6817H182.4V28.085C182.358 28.478 182.403 28.8753 182.532 29.2492C182.658 29.6232 182.867 29.9648 183.14 30.2503C183.413 30.5358 183.745 30.7583 184.113 30.9025C184.48 31.0467 184.875 31.109 185.27 31.085C187.085 31.085 188.338 30.03 188.338 27.6867V18.6867L193.283 18.6817Z" fill="#50DE4D"/>
<path d="M221.667 25.05V35.18H216.717V25.4783C216.717 23.8283 215.925 22.7733 214.342 22.7733C212.692 22.7733 211.767 23.9283 211.767 25.875V35.18H206.818V25.4783C206.818 23.8283 206.027 22.7733 204.442 22.7733C202.792 22.7733 201.868 23.9283 201.868 25.875V35.18H196.918V18.68H201.868V20.1967C202.382 19.5238 203.055 18.9902 203.827 18.6447C204.6 18.299 205.447 18.1525 206.29 18.2183C207.137 18.1768 207.98 18.3557 208.738 18.7372C209.495 19.1185 210.14 19.6898 210.612 20.395C211.16 19.6572 211.887 19.0705 212.723 18.6898C213.56 18.3092 214.48 18.147 215.397 18.2183C219.185 18.22 221.667 20.925 221.667 25.05Z" fill="#50DE4D"/>
<path d="M225.853 18.58C227.882 18.58 229.527 16.9353 229.527 14.9067C229.527 12.8779 227.882 11.2333 225.853 11.2333C223.825 11.2333 222.18 12.8779 222.18 14.9067C222.18 16.9353 223.825 18.58 225.853 18.58Z" fill="#50DE4D"/>
</svg>
