<svg width="66" height="61" viewBox="0 0 66 61" fill="none" xmlns="http://www.w3.org/2000/svg">
<g filter="url(#filter0_d_728_679)">
<path d="M4 53.8637V51.1364C4 40.5927 12.5473 32.0455 23.0909 32.0455C33.6345 32.0455 42.1818 40.5927 42.1818 51.1364V53.8637" stroke="white" stroke-width="4" stroke-linecap="round"/>
<path d="M36.7273 37.5C36.7273 29.9689 42.8326 23.8636 50.3637 23.8636C57.8947 23.8636 64 29.9689 64 37.5V38.8636" stroke="white" stroke-width="4" stroke-linecap="round"/>
<path d="M23.091 32.0455C29.1158 32.0455 34.0001 27.1612 34.0001 21.1364C34.0001 15.1115 29.1158 10.2273 23.091 10.2273C17.066 10.2273 12.1819 15.1115 12.1819 21.1364C12.1819 27.1612 17.066 32.0455 23.091 32.0455Z" stroke="white" stroke-width="4" stroke-linecap="round" stroke-linejoin="round"/>
<path d="M50.3637 23.8636C54.8825 23.8636 58.5455 20.2005 58.5455 15.6818C58.5455 11.1631 54.8825 7.5 50.3637 7.5C45.8449 7.5 42.1819 11.1631 42.1819 15.6818C42.1819 20.2005 45.8449 23.8636 50.3637 23.8636Z" stroke="white" stroke-width="4" stroke-linecap="round" stroke-linejoin="round"/>
</g>
<defs>
<filter id="filter0_d_728_679" x="0" y="3.5" width="66" height="52.3636" filterUnits="userSpaceOnUse" color-interpolation-filters="sRGB">
<feFlood flood-opacity="0" result="BackgroundImageFix"/>
<feColorMatrix in="SourceAlpha" type="matrix" values="0 0 0 0 0 0 0 0 0 0 0 0 0 0 0 0 0 0 127 0" result="hardAlpha"/>
<feOffset dx="-1" dy="-1"/>
<feGaussianBlur stdDeviation="0.5"/>
<feComposite in2="hardAlpha" operator="out"/>
<feColorMatrix type="matrix" values="0 0 0 0 0.0931864 0 0 0 0 0.104125 0 0 0 0 0.366661 0 0 0 0.25 0"/>
<feBlend mode="normal" in2="BackgroundImageFix" result="effect1_dropShadow_728_679"/>
<feBlend mode="normal" in="SourceGraphic" in2="effect1_dropShadow_728_679" result="shape"/>
</filter>
</defs>
</svg>
